<svg xmlns="http://www.w3.org/2000/svg" width="139" height="18" viewBox="0 0 139 18">
    <g fill="none" fill-rule="evenodd">
        <g>
            <g>
                <path fill="#FFF" d="M35.066 6.56l1.946 4.933 1.754-4.933h1.726l-3.126 8.286c-.178.476-.56.87-1.144 1.183-.584.314-1.265.471-2.043.471v-1.474c1.285 0 1.927-.322 1.927-.967 0-.426-.178-1.08-.533-1.96L33.339 6.56h1.727zm79.87-.133c2.276 0 3.414 1.253 3.414 3.76 0 1.168-.315 2.068-.944 2.7-.628.63-1.488.946-2.576.946-.525 0-1.002-.104-1.434-.313v2.98h-1.666V6.56h1.666v.48c.419-.409.932-.613 1.54-.613zm-94.463-2.66c1.12 0 2.016.229 2.687.687l-.714 1.433c-.386-.387-1.009-.58-1.866-.58-.814 0-1.48.341-2 1.023-.52.683-.78 1.546-.78 2.59 0 1.045.24 1.873.723 2.487.482.613 1.125.92 1.93.92.92 0 1.64-.329 2.16-.987l.806 1.4c-.706.75-1.742 1.126-3.106 1.126-1.364 0-2.424-.448-3.18-1.346C16.378 11.622 16 10.398 16 8.847c0-1.444.419-2.653 1.257-3.623.837-.972 1.91-1.457 3.216-1.457zM109.79 3.5v8.027c0 .88.262 1.404.787 1.573-.258.489-.698.733-1.32.733-.756 0-1.134-.525-1.134-1.573V3.9l1.667-.4zm-11.466 0v10.2h-1.667v-.433c-.138.15-.37.283-.7.396-.328.113-.669.17-1.02.17-.995 0-1.779-.316-2.35-.947-.57-.631-.856-1.51-.856-2.64 0-1.128.328-2.047.983-2.756.656-.709 1.476-1.063 2.463-1.063.542 0 1.036.11 1.48.333V3.9l1.667-.4zm-67.612.994V6.56h1.96V7.9h-1.96v3.127c0 .51.08.872.24 1.083.16.211.44.316.84.316.4 0 .774-.109 1.12-.326v1.533c-.386.134-.937.2-1.653.2-.71 0-1.257-.201-1.64-.603-.382-.402-.573-.975-.573-1.717V7.9h-.827V6.56h.827V5.107l1.666-.613zm15.954 1.933c1.084 0 1.927.329 2.526.986.6.658.9 1.558.9 2.7 0 1.138-.305 2.043-.916 2.714-.611.67-1.448 1.006-2.51 1.006-1.085 0-1.928-.339-2.53-1.016-.602-.678-.904-1.58-.904-2.704 0-1.089.315-1.975.944-2.66.629-.684 1.459-1.026 2.49-1.026zM82.718 3.5v8.027c0 .88.262 1.404.787 1.573-.259.489-.698.733-1.32.733-.756 0-1.134-.525-1.134-1.573V3.9l1.667-.4zm51.584 2.927c1.09 0 1.887.248 2.393.743.507.496.76 1.434.76 2.817v1.527c0 .95.191 1.548.573 1.793-.137.24-.29.387-.46.443-.168.055-.361.083-.58.083-.24 0-.455-.088-.646-.266-.19-.178-.32-.371-.386-.58-.152.249-.415.452-.79.61-.376.157-.768.236-1.177.236-.77 0-1.374-.192-1.814-.577-.44-.384-.66-.93-.66-1.636 0-.827.31-1.474.93-1.94.62-.467 1.502-.7 2.644-.7.195 0 .426.033.693.1 0-.84-.531-1.26-1.594-1.26-.626 0-1.15.105-1.573.313l-.36-1.293c.574-.275 1.256-.413 2.047-.413zm-47.19 0c1.088 0 1.886.248 2.392.743.507.496.76 1.434.76 2.817v1.527c0 .95.191 1.548.573 1.793-.137.24-.29.387-.46.443-.168.055-.361.083-.58.083-.24 0-.455-.088-.646-.266-.19-.178-.32-.371-.386-.58-.152.249-.415.452-.79.61-.376.157-.768.236-1.177.236-.77 0-1.374-.192-1.814-.577-.44-.384-.66-.93-.66-1.636 0-.827.31-1.474.93-1.94.62-.467 1.502-.7 2.644-.7.195 0 .426.033.693.1 0-.84-.531-1.26-1.594-1.26-.626 0-1.15.105-1.573.313l-.36-1.293c.574-.275 1.256-.413 2.047-.413zm15.958 0c1.035 0 1.867.309 2.493.927.627.617.94 1.404.94 2.36 0 .204-.047.512-.14.926h-5.1c.031.57.227 1.011.587 1.327.36.315.844.473 1.453.473.76 0 1.338-.198 1.733-.594l.647 1.274c-.587.475-1.462.713-2.626.713-1.09 0-1.95-.319-2.584-.956-.633-.638-.95-1.528-.95-2.67 0-1.125.348-2.036 1.044-2.734.695-.697 1.53-1.046 2.503-1.046zM54.453 3.634c.395 0 .877.086 1.446.26l-.493 1.266c-.365-.12-.645-.18-.84-.18-.316 0-.584.136-.804.407-.22.27-.33.604-.33 1 0 .058.003.115.007.173h1.48v1.373h-1.453V13.7h-1.667V7.933h-1.04V6.56h1.047c.035-.875.294-1.582.777-2.12.482-.538 1.105-.806 1.87-.806zm67.056-.134v3.513c.431-.39 1.025-.586 1.78-.586.894 0 1.587.248 2.08.743.493.496.74 1.205.74 2.13v4.4h-1.673V9.3c0-.44-.138-.793-.414-1.06-.275-.267-.635-.4-1.08-.4-.275 0-.552.075-.833.224-.28.149-.48.318-.6.51V13.7h-1.693V3.9l1.693-.4zm-58.797.367c1.542 0 2.67.237 3.383.71.713.473 1.07 1.212 1.07 2.216 0 2.24-1.32 3.36-3.96 3.36-.195 0-.457-.015-.786-.046V13.7h-1.734V3.94c1.156-.049 1.831-.073 2.027-.073zm7.58-.367v3.513c.43-.39 1.024-.586 1.78-.586.893 0 1.586.248 2.08.743.492.496.74 1.205.74 2.13v4.4h-1.674V9.3c0-.44-.138-.793-.413-1.06-.276-.267-.635-.4-1.08-.4-.276 0-.553.075-.833.224-.28.149-.48.318-.6.51V13.7h-1.693V3.9l1.693-.4zm8.532 3.06v7.14h-1.686V7.927h-.914V6.56h2.6zm51.218 0v7.14h-1.686V7.927h-.914V6.56h2.6zm-103.19 0v7.14h-1.686V7.927h-.913V6.56h2.6zm108.304 3.693c-1.317 0-1.974.431-1.974 1.293 0 .64.371.96 1.113.96 1 0 1.5-.5 1.5-1.5v-.666c-.285-.058-.498-.087-.64-.087zm-47.191 0c-1.317 0-1.974.431-1.974 1.293 0 .64.371.96 1.113.96 1 0 1.5-.5 1.5-1.5v-.666c-.285-.058-.498-.087-.64-.087zm-41.3-2.466c-.52 0-.932.204-1.239.613-.307.41-.46.98-.46 1.713 0 1.574.566 2.36 1.7 2.36.52 0 .932-.204 1.237-.613.304-.409.456-.991.456-1.747 0-1.55-.564-2.326-1.693-2.326zm67.798.053c-.4 0-.755.155-1.067.467v3.752c.303.245.656.367 1.06.367.77 0 1.321-.183 1.657-.55.336-.366.503-.944.503-1.736 0-.844-.166-1.439-.5-1.784-.333-.344-.884-.516-1.653-.516zm-18.92 0c-.666 0-1.18.204-1.539.61-.36.407-.54.99-.54 1.75 0 1.484.716 2.227 2.147 2.227.16 0 .356-.048.59-.144.233-.095.385-.192.456-.29V8.267c-.356-.285-.726-.427-1.113-.427zm7.553-.02c-.95 0-1.542.523-1.772 1.566h3.506c-.116-1.043-.693-1.566-1.734-1.566zm-40.15-2.413c-.183 0-.359.011-.527.033v3.127c.293.03.524.046.693.046.791 0 1.369-.132 1.733-.396.364-.265.547-.695.547-1.29 0-1.014-.816-1.52-2.447-1.52zm-36.92-1.613c.267 0 .495.094.683.283.19.189.284.417.284.683 0 .267-.095.495-.284.684-.188.188-.416.283-.683.283-.267 0-.494-.095-.683-.283-.19-.19-.284-.417-.284-.684 0-.266.095-.494.284-.683.189-.189.416-.283.683-.283zm51.972 0c.267 0 .494.094.683.283.19.189.284.417.284.683 0 .267-.095.495-.284.684-.189.188-.416.283-.683.283-.267 0-.495-.095-.683-.283-.19-.19-.284-.417-.284-.684 0-.266.094-.494.284-.683.188-.189.416-.283.683-.283zm51.217 0c.267 0 .495.094.684.283.189.189.283.417.283.683 0 .267-.094.495-.283.684-.19.188-.417.283-.684.283-.266 0-.494-.095-.683-.283-.19-.19-.283-.417-.283-.684 0-.266.094-.494.283-.683.189-.189.417-.283.683-.283z" transform="translate(-783 -743) translate(783 743)"/>
                <path fill="#F2C612" d="M3.65 15.41c.086-.261.367-.404.629-.32.261.087.404.367.32.63-.07.209-.263.34-.472.34l-.04.245s-.08.019-.205-.023c-.126-.04-.194-.108-.194-.108l.116-.228c-.15-.127-.218-.337-.153-.535zm1.572-1.38c1.947.494 3.696.517 4.54.17.377.78.192.876-.085 1.066-.371.254-1.967.557-4.295-.059-.052-.22-.123-.801-.16-1.178zM.582 11.64c.574.77 2.204 1.704 4.256 2.285.042.373.13.997.169 1.19l-.558-.15C1.991 14.278.647 13.314.148 12.668c-.206-.267-.3-.529.433-1.028zm2.541-9.797c.119-.424.393-.348.487-.321l2.834.792c.22.06.413-.404.615-.347l.94.263.336.094.955.267c.202.056.128.553.346.614l2.835.792c.093.026.368.102.25.527l-.645 2.306c-.009.032.007.055.037.064l.202.056c.068.02.107.074.103.183-.005.118-.023.291-.095.55-.081.29-.183.516-.226.598-.039.077-.074.134-.182.103l-1.816-.507c-.099-.028-.235-.098-.212-.316.048-.453.033-1.378-.06-1.543-.124-.22-1.388-.718-1.388-.718s0 .08-.063.279c-.062.199-.421.562-.356.678.358.636 1.608.759 1.38 1.863-.583 2.803-.583 4.152-.043 5.303-.788.265-2.283.146-4.22-.395l-.03-.01c-.039-.138-.043-.173-.045-.24v-.036c-.002-.093-.004-.249-.043-.601-.043-.38-.082-.574-.089-.732-.006-.158-.016-.304.07-.612.01-.038.022-.078.035-.12.126-.433.431-1.666.475-2.038.007-.065-.029-.074-.038-.077-.009-.003-.044-.014-.072.046-.163.34-.567 1.541-.693 1.973l-.036.125c-.087.311-.116.485-.108.674.009.187.031.368.072.742.044.4.039.521.042.618.001.053.005.097.018.159-1.695-.516-2.871-1.133-3.368-1.716 1.06-.705 1.76-1.858 2.715-4.56.376-1.063 1.509-.52 2.144-.878.117-.065.002-.561.052-.763.05-.203.087-.273.087-.273s-1.281-.212-1.502-.089c-.164.094-.656.877-.85 1.29-.093.197-.246.187-.346.16l-1.815-.508c-.109-.03-.109-.097-.103-.182.006-.093.036-.34.117-.628.072-.26.147-.417.204-.52.053-.096.115-.123.183-.104l.202.057c.03.008.055-.004.064-.036z" transform="translate(-783 -743) translate(783 743)"/>
            </g>
        </g>
    </g>
</svg>
