<svg id="logo" xmlns="http://www.w3.org/2000/svg" viewBox="0 0 71.13 82.61"><defs><style>.cls-1{fill:#f2c612;}</style></defs><title>city-of-philadelphia</title><g id="bell"><path class="cls-1" d="M29.13,69.9c.21,2.1.61,5.33.89,6.57,13,3.44,21.89,1.74,24,.32,1.55-1.06,2.58-1.59.48-5.94-4.71,1.93-14.47,1.8-25.33-.95"/><path class="cls-1" d="M23.87,75.82a2.78,2.78,0,0,0-2.65,4.77l-.65,1.27a3,3,0,0,0,1.08.6,2.37,2.37,0,0,0,1.15.13L23,81.23a2.77,2.77,0,0,0,.85-5.41"/><path class="cls-1" d="M71,16.87c.66-2.36-.88-2.79-1.4-2.94L53.76,9.52C52.54,9.18,53,6.4,51.83,6.09L39.38,2.61C38.25,2.3,37.17,4.88,36,4.55L20.14.13c-.52-.15-2.05-.58-2.72,1.79L13.83,14.78a.27.27,0,0,1-.36.2l-1.12-.31c-.39-.11-.73,0-1,.57a13.61,13.61,0,0,0-1.13,2.9,20.08,20.08,0,0,0-.66,3.51c0,.48,0,.85.58,1L20.23,25.5a1.5,1.5,0,0,0,1.94-.9c1.08-2.3,3.82-6.66,4.74-7.19,1.23-.69,8.37.5,8.37.5a8.13,8.13,0,0,0-.48,1.52c-.28,1.13.36,3.89-.29,4.26-3.54,2-9.87-1-12,4.89C17.22,43.66,13.32,50.09,7.4,54c2.77,3.26,9.34,6.7,18.79,9.57a4.84,4.84,0,0,1-.1-.88,29.43,29.43,0,0,0-.23-3.45c-.23-2.08-.35-3.09-.4-4.14a11.21,11.21,0,0,1,.6-3.76c.06-.22.13-.45.2-.69.7-2.41,3-9.12,3.86-11,.16-.33.36-.27.41-.26s.25.07.21.43c-.24,2.08-1.95,9-2.65,11.37l-.2.67a9.49,9.49,0,0,0-.39,3.41c0,.89.26,2,.5,4.09a30,30,0,0,1,.24,3.55,4.47,4.47,0,0,0,.25,1.35l.17,0c10.81,3,19.14,3.69,23.54,2.21-3-6.42-3-13.95.24-29.59,1.28-6.15-5.7-6.84-7.7-10.39-.36-.64,1.64-2.67,2-3.78a6.12,6.12,0,0,0,.35-1.56s7.05,2.78,7.74,4c.52.92.6,6.08.33,8.61a1.49,1.49,0,0,0,1.19,1.76l10.13,2.83c.6.17.8-.15,1-.57a19.38,19.38,0,0,0,1.25-3.34,13,13,0,0,0,.54-3.07c0-.6-.2-.91-.58-1l-1.13-.32a.26.26,0,0,1-.2-.35"/><path class="cls-1" d="M3.24,56.57C-.85,59.36-.32,60.82.82,62.31c2.79,3.6,10.29,9,24,12.81l3.11.84c-.21-1.07-.71-4.56-.94-6.64C15.54,66.08,6.45,60.87,3.24,56.57"/></g></svg>